<svg width="34" height="34" viewBox="0 0 34 34" fill="none" xmlns="http://www.w3.org/2000/svg">
<rect x="0.792709" y="0.792709" width="32.4146" height="32.4146" rx="16.2073" fill="white"/>
<rect x="0.792709" y="0.792709" width="32.4146" height="32.4146" rx="16.2073" stroke="#DDDCEE" stroke-width="1.58542"/>
<path fill-rule="evenodd" clip-rule="evenodd" d="M17.8748 10.875C17.8748 10.3918 17.483 10 16.9998 10C16.5165 10 16.1248 10.3918 16.1248 10.875V21.0121L11.4937 16.3811C11.152 16.0394 10.598 16.0394 10.2563 16.3811C9.91457 16.7228 9.91457 17.2768 10.2563 17.6185L16.3647 23.7269C16.5241 23.8951 16.7497 24 16.9998 24C17.165 24 17.3195 23.9542 17.4514 23.8746C17.5102 23.8391 17.5658 23.7961 17.6166 23.7456C17.6173 23.7449 17.618 23.7442 17.6187 23.7435L23.7437 17.6185C24.0854 17.2768 24.0854 16.7228 23.7437 16.3811C23.402 16.0394 22.848 16.0394 22.5063 16.3811L17.8748 21.0126V10.875Z" fill="#571178"/>
</svg>
